<?xml version="1.0" standalone="no"?>
<!DOCTYPE svg PUBLIC "-//W3C//DTD SVG 20010904//EN"
 "http://www.w3.org/TR/2001/REC-SVG-20010904/DTD/svg10.dtd">
<svg version="1.0" xmlns="http://www.w3.org/2000/svg"
 width="1200.000000pt" height="1357.000000pt" viewBox="0 0 1200.000000 1357.000000"
 preserveAspectRatio="xMidYMid meet">

<g transform="translate(0.000000,1357.000000) scale(0.100000,-0.100000)"
fill="#f5f0da" stroke="none">
<path d="M6370 13561 c0 -18 741 -1820 875 -2127 31 -70 52 -131 48 -135 -4
-4 -111 -51 -237 -104 -355 -149 -510 -219 -796 -361 -669 -331 -1181 -648
-1757 -1091 -2202 -1692 -3639 -3973 -4227 -6708 -142 -662 -215 -1206 -246
-1825 -8 -179 -30 -998 -30 -1162 l0 -48 1020 0 1020 0 0 123 c1 223 20 919
30 1092 20 328 57 626 125 1009 386 2172 1421 4054 2994 5445 355 314 517 428
961 683 386 221 993 515 1425 689 210 85 529 198 537 191 22 -23 452 -1017
795 -1841 109 -261 202 -474 207 -475 15 -2 118 172 499 839 472 827 547 959
657 1155 51 91 198 350 326 575 1121 1975 1404 2480 1404 2502 0 7 -12 19 -27
25 -32 13 -375 110 -963 273 -228 64 -489 138 -580 165 -91 27 -219 62 -285
79 -203 51 -540 145 -645 181 -30 10 -152 44 -270 75 -118 31 -339 92 -490
135 -151 43 -390 110 -530 149 -140 38 -293 81 -340 95 -47 14 -202 58 -345
96 -143 39 -327 91 -410 115 -261 76 -711 195 -740 195 -3 0 -5 -4 -5 -9z"/>
</g>
</svg>
