<?xml version="1.0" standalone="no"?>
<!DOCTYPE svg PUBLIC "-//W3C//DTD SVG 20010904//EN"
 "http://www.w3.org/TR/2001/REC-SVG-20010904/DTD/svg10.dtd">
<svg version="1.0" xmlns="http://www.w3.org/2000/svg"
 width="1280.000000pt" height="908.000000pt" viewBox="0 0 1280.000000 908.000000"
 preserveAspectRatio="xMidYMid meet">
<g transform="translate(0.000000,908.000000) scale(0.100000,-0.100000)"
fill="#000000" stroke="none">
<path d="M7960 8982 c0 -66 4 -101 10 -97 13 8 13 165 0 185 -7 10 -10 -18
-10 -88z"/>
<path d="M8070 9018 c0 -74 9 -71 19 6 6 44 5 56 -6 56 -9 0 -13 -17 -13 -62z"/>
<path d="M9647 9028 c-25 -53 -47 -140 -47 -181 l0 -22 13 21 c51 88 97 193
97 222 0 6 -9 12 -19 12 -14 0 -27 -16 -44 -52z"/>
<path d="M12078 9066 c-2 -8 -31 -50 -65 -94 -58 -73 -80 -91 -125 -106 -10
-3 -18 -13 -18 -23 0 -10 -14 -45 -30 -77 -17 -33 -28 -61 -25 -64 7 -7 94 75
131 123 20 27 37 39 51 37 13 -2 33 11 56 38 21 22 41 40 45 40 12 0 75 79 89
112 l12 28 -59 0 c-43 0 -59 -4 -62 -14z"/>
<path d="M12379 9020 c-29 -27 -54 -70 -42 -70 18 1 74 62 71 78 -3 15 -7 14
-29 -8z"/>
<path d="M5650 9000 c0 -5 5 -10 10 -10 6 0 10 5 10 10 0 6 -4 10 -10 10 -5 0
-10 -4 -10 -10z"/>
<path d="M10384 8978 c-21 -32 -34 -55 -50 -88 -9 -19 -20 -43 -25 -52 -13
-26 -11 -32 6 -18 16 14 88 160 81 167 -2 2 -8 -2 -12 -9z"/>
<path d="M3930 8950 c-9 -6 -10 -10 -3 -10 6 0 15 5 18 10 8 12 4 12 -15 0z"/>
<path d="M8019 8928 c-1 -13 -2 -34 -3 -48 -1 -14 1 -36 5 -50 4 -16 7 2 8 48
1 39 -1 72 -4 72 -3 0 -6 -10 -6 -22z"/>
<path d="M12786 8941 c-4 -7 -5 -15 -2 -18 9 -9 19 4 14 18 -4 11 -6 11 -12 0z"/>
<path d="M7290 8880 c0 -5 5 -10 11 -10 5 0 7 5 4 10 -3 6 -8 10 -11 10 -2 0
-4 -4 -4 -10z"/>
<path d="M10177 8821 c-4 -17 -3 -21 5 -13 5 5 8 16 6 23 -3 8 -7 3 -11 -10z"/>
<path d="M10315 8769 c-37 -64 -47 -99 -29 -106 9 -3 84 139 84 160 0 22 -24
-1 -55 -54z"/>
<path d="M8018 8794 c-5 -4 -8 -21 -8 -38 0 -21 3 -27 11 -19 6 6 9 23 7 38
-2 15 -6 23 -10 19z"/>
<path d="M12280 8750 c-19 -21 -40 -39 -46 -40 -6 0 -18 -7 -25 -16 -9 -11 -1
-9 26 6 47 26 73 48 86 72 16 30 -4 19 -41 -22z"/>
<path d="M8447 8720 c-32 -26 -36 -65 -7 -80 18 -10 20 -18 15 -63 l-5 -52 17
51 c10 28 24 58 32 67 9 12 11 26 4 54 -10 45 -22 50 -56 23z"/>
<path d="M12631 8649 c-39 -33 -71 -63 -71 -65 0 -14 27 4 89 61 90 82 76 85
-18 4z"/>
<path d="M7750 8640 c0 -5 5 -10 10 -10 6 0 10 5 10 10 0 6 -4 10 -10 10 -5 0
-10 -4 -10 -10z"/>
<path d="M6020 8598 c1 -15 39 -87 40 -74 0 19 -24 86 -32 86 -4 0 -8 -6 -8
-12z"/>
<path d="M10362 8553 c-10 -16 -25 -39 -32 -53 -11 -22 -11 -23 2 -10 19 19
61 90 54 90 -2 0 -13 -12 -24 -27z"/>
<path d="M11721 8483 c-59 -60 -103 -116 -114 -145 -3 -10 -11 -18 -16 -18 -5
0 -18 -16 -30 -35 -19 -32 -19 -35 -2 -26 34 18 190 202 220 259 19 35 4 26
-58 -35z"/>
<path d="M12060 8530 c-8 -5 -11 -12 -7 -16 4 -4 13 -2 19 4 15 15 7 24 -12
12z"/>
<path d="M7000 8460 c0 -5 5 -10 10 -10 6 0 10 5 10 10 0 6 -4 10 -10 10 -5 0
-10 -4 -10 -10z"/>
<path d="M12392 8399 c-19 -7 -22 -14 -16 -31 12 -41 47 -49 68 -16 16 26 -20
59 -52 47z"/>
<path d="M12120 8365 c-13 -14 -19 -25 -13 -25 6 0 18 11 27 25 9 14 15 25 13
25 -2 0 -14 -11 -27 -25z"/>
<path d="M11662 8320 c-17 -21 -32 -45 -32 -52 0 -7 -27 -42 -60 -76 -55 -59
-70 -82 -53 -82 3 0 22 18 41 41 19 22 40 38 47 35 8 -2 37 21 67 52 42 45 49
57 36 60 -21 4 -21 7 -8 32 19 35 -5 29 -38 -10z"/>
<path d="M12478 8300 c-29 -27 -44 -47 -32 -42 19 6 103 92 91 92 -3 0 -30
-22 -59 -50z"/>
<path d="M12740 8314 c-68 -52 -100 -85 -100 -104 0 -10 -7 -23 -15 -30 -31
-26 -117 -131 -112 -136 6 -7 131 65 202 116 28 20 58 39 68 43 14 5 17 19 17
77 0 38 -3 70 -7 69 -5 0 -28 -16 -53 -35z"/>
<path d="M6911 8330 c0 -8 6 -26 15 -40 l15 -25 -7 25 c-3 14 -10 32 -15 40
-7 13 -8 13 -8 0z"/>
<path d="M7046 8300 c3 -25 12 -77 20 -116 8 -39 19 -114 24 -165 5 -53 22
-134 39 -186 17 -50 42 -147 55 -214 14 -67 27 -123 29 -126 3 -2 7 13 9 33 3
24 -5 67 -22 118 -31 93 -45 166 -31 166 5 0 12 -10 14 -22 l4 -23 2 22 c0 13
-12 64 -28 115 -16 51 -39 136 -51 188 -29 129 -72 271 -64 210z"/>
<path d="M11895 8319 c-11 -17 1 -21 15 -4 8 9 8 15 2 15 -6 0 -14 -5 -17 -11z"/>
<path d="M10700 8221 c-83 -101 -116 -151 -102 -151 19 0 117 116 150 178 18
34 31 62 29 62 -2 0 -37 -40 -77 -89z"/>
<path d="M12049 8288 c-12 -23 -12 -23 10 -4 23 21 26 26 11 26 -5 0 -15 -10
-21 -22z"/>
<path d="M11227 8221 c-41 -43 -80 -89 -87 -101 -10 -20 -10 -21 8 -11 38 21
180 191 159 191 -2 0 -38 -36 -80 -79z"/>
<path d="M11819 8254 c-45 -47 -79 -64 -128 -64 -34 0 -42 -4 -55 -32 -11 -20
-14 -43 -10 -64 5 -29 1 -38 -40 -80 -42 -42 -56 -64 -40 -64 3 0 30 23 60 52
46 43 57 50 76 41 17 -8 27 -3 55 24 26 27 33 42 33 73 0 33 7 45 50 87 27 26
50 51 50 56 0 15 -17 6 -51 -29z"/>
<path d="M10471 8224 c-12 -20 -20 -38 -18 -40 2 -2 14 14 26 36 28 50 21 53
-8 4z"/>
<path d="M10749 8148 c-53 -69 -55 -75 -19 -43 60 52 84 85 61 85 -5 0 -24
-19 -42 -42z"/>
<path d="M12232 8104 c-24 -32 -40 -59 -38 -62 10 -9 65 44 77 73 7 17 14 33
17 38 2 4 0 7 -5 7 -6 0 -28 -25 -51 -56z"/>
<path d="M12765 8068 c-32 -35 -65 -89 -65 -107 0 -20 24 -11 63 22 35 30 38
37 35 76 l-3 42 -30 -33z"/>
<path d="M11480 8075 c-10 -12 -10 -15 4 -15 9 0 16 7 16 15 0 8 -2 15 -4 15
-2 0 -9 -7 -16 -15z"/>
<path d="M9477 8048 c-50 -18 -46 -100 7 -114 32 -8 72 19 79 54 6 33 3 38
-31 56 -19 9 -35 11 -55 4z"/>
<path d="M12260 7985 c-19 -19 -30 -35 -25 -35 13 0 75 50 75 61 0 17 -16 9
-50 -26z"/>
<path d="M7425 7996 c-16 -12 -18 -19 -10 -41 15 -42 39 -53 64 -31 30 27 27
64 -5 76 -31 12 -27 13 -49 -4z"/>
<path d="M12566 7934 c-57 -47 -70 -63 -38 -45 23 13 109 90 101 91 -4 0 -32
-21 -63 -46z"/>
<path d="M12507 7953 c-12 -12 -7 -22 8 -17 8 4 15 10 15 15 0 11 -14 12 -23
2z"/>
<path d="M12728 7894 c-37 -36 -72 -63 -78 -59 -5 3 -10 1 -10 -4 0 -6 2 -11
4 -11 11 0 67 28 109 55 37 24 47 36 47 58 0 15 -1 27 -2 27 -2 0 -33 -30 -70
-66z"/>
<path d="M10500 7925 c-19 -14 -41 -25 -50 -25 -9 0 -23 -12 -32 -27 -9 -16
-41 -55 -70 -88 l-53 -60 45 35 c46 36 207 190 199 190 -3 0 -20 -11 -39 -25z"/>
<path d="M10643 7843 c-114 -124 -153 -169 -153 -178 0 -3 23 19 51 49 28 31
57 56 65 56 11 0 96 105 128 158 17 28 -6 7 -91 -85z"/>
<path d="M10875 7930 c-8 -14 3 -30 21 -30 8 0 14 9 14 20 0 21 -24 28 -35 10z"/>
<path d="M7795 7901 c-3 -5 -1 -12 5 -16 5 -3 10 1 10 9 0 18 -6 21 -15 7z"/>
<path d="M11720 7889 c0 -15 5 -20 22 -17 34 5 37 38 4 38 -20 0 -26 -5 -26
-21z"/>
<path d="M9437 7825 c-21 -30 -15 -45 19 -45 28 0 42 25 27 48 -15 24 -26 23
-46 -3z"/>
<path d="M11993 7783 c-30 -6 -63 -49 -63 -82 0 -15 14 -46 31 -70 25 -34 36
-41 53 -36 12 3 32 7 45 9 30 4 77 60 76 89 -2 34 -23 65 -55 82 -29 15 -44
16 -87 8z"/>
<path d="M6570 7750 c0 -5 5 -10 10 -10 6 0 10 5 10 10 0 6 -4 10 -10 10 -5 0
-10 -4 -10 -10z"/>
<path d="M12780 7745 c-7 -8 -17 -15 -24 -15 -15 0 -118 -72 -112 -78 3 -2 34
13 70 36 46 29 67 37 75 29 8 -8 11 -4 11 16 0 31 -3 33 -20 12z"/>
<path d="M10845 7716 c-29 -29 -23 -64 16 -83 30 -15 59 1 74 41 8 24 6 30
-15 47 -33 25 -46 24 -75 -5z"/>
<path d="M10140 7711 c-31 -8 -38 -45 -14 -72 33 -37 89 -16 82 32 -4 29 -37
48 -68 40z"/>
<path d="M6005 7650 c14 -27 28 -50 30 -50 3 0 -6 23 -20 50 -14 28 -28 50
-30 50 -3 0 6 -22 20 -50z"/>
<path d="M12349 7672 c-59 -44 -159 -125 -159 -129 0 -7 87 52 147 100 35 28
63 52 63 54 0 8 -18 0 -51 -25z"/>
<path d="M2225 7670 c-3 -5 1 -10 9 -10 8 0 18 5 21 10 3 6 -1 10 -9 10 -8 0
-18 -4 -21 -10z"/>
<path d="M12449 7584 c-23 -25 -23 -26 -2 -13 13 7 25 19 27 26 8 19 2 16 -25
-13z"/>
<path d="M5866 7462 c-7 -12 69 -198 86 -208 4 -3 8 6 8 19 0 33 -84 204 -94
189z"/>
<path d="M7205 7461 c-9 -15 4 -71 22 -96 14 -18 14 -15 8 35 -6 57 -18 80
-30 61z"/>
<path d="M12540 7435 c-17 -21 -6 -43 25 -51 37 -9 61 15 46 45 -14 25 -53 28
-71 6z"/>
<path d="M6686 7415 c8 -37 14 -45 14 -19 0 10 -5 26 -10 34 -8 11 -9 7 -4
-15z"/>
<path d="M9754 7425 c-4 -9 0 -23 9 -32 21 -21 49 -9 45 19 -4 28 -45 38 -54
13z"/>
<path d="M12111 7399 c-23 -17 -40 -34 -37 -37 4 -4 40 19 85 55 2 2 2 5 -1 8
-2 3 -23 -9 -47 -26z"/>
<path d="M8622 7408 c-27 -27 -6 -68 34 -68 33 0 49 25 36 55 -13 27 -49 34
-70 13z"/>
<path d="M11892 7339 c-43 -31 -56 -48 -24 -30 23 13 79 60 71 61 -3 0 -24
-14 -47 -31z"/>
<path d="M6138 7325 c-17 -33 -17 -35 2 -45 14 -7 26 -8 39 0 18 9 19 13 6 42
-18 43 -27 44 -47 3z"/>
<path d="M9097 7334 c-4 -4 -7 -20 -7 -35 0 -34 25 -50 58 -38 19 7 23 15 20
41 -3 29 -7 33 -33 36 -17 2 -34 0 -38 -4z"/>
<path d="M9535 7291 c30 -9 122 -14 114 -7 -2 2 -35 6 -74 9 -44 4 -59 3 -40
-2z"/>
<path d="M9693 7283 c9 -2 23 -2 30 0 6 3 -1 5 -18 5 -16 0 -22 -2 -12 -5z"/>
<path d="M2811 7241 c-37 -34 -40 -46 -8 -30 29 15 57 40 57 51 0 15 -18 8
-49 -21z"/>
<path d="M9800 7255 c14 -8 30 -14 35 -14 6 0 -1 6 -15 14 -14 8 -29 14 -35
14 -5 0 1 -6 15 -14z"/>
<path d="M7723 7093 c-31 -12 0 -59 31 -47 10 4 16 15 14 28 -3 21 -22 29 -45
19z"/>
<path d="M8442 7064 c-37 -25 -28 -75 16 -89 18 -5 30 -1 48 16 30 28 30 34
-1 64 -28 29 -33 30 -63 9z"/>
<path d="M9228 7027 c-17 -6 -28 -19 -28 -30 0 -18 5 -19 63 -13 34 3 85 12
112 19 l50 14 -35 6 c-75 14 -136 15 -162 4z"/>
<path d="M9458 7013 c7 -3 16 -2 19 1 4 3 -2 6 -13 5 -11 0 -14 -3 -6 -6z"/>
<path d="M9498 7003 c6 -2 18 -2 25 0 6 3 1 5 -13 5 -14 0 -19 -2 -12 -5z"/>
<path d="M6845 6960 c3 -25 15 -72 25 -105 10 -33 21 -80 25 -105 4 -25 21
-85 37 -134 19 -57 31 -114 33 -155 1 -36 5 -79 9 -96 22 -88 70 -218 95 -257
16 -25 39 -65 50 -89 12 -24 31 -62 42 -83 11 -22 23 -58 25 -80 4 -42 -11
-96 -27 -96 -5 0 -9 -13 -9 -30 0 -44 -27 -39 -39 8 -6 20 -11 48 -11 62 0 47
-151 313 -168 296 -6 -6 113 -299 144 -355 13 -24 22 -46 19 -49 -12 -12 -81
79 -112 148 -33 72 -95 174 -112 184 -4 3 -6 -6 -3 -21 4 -22 2 -25 -12 -20
-10 4 -16 4 -14 0 27 -62 63 -116 79 -120 16 -5 79 -83 79 -100 0 -3 21 -35
47 -72 38 -52 47 -74 46 -101 -2 -32 2 -38 41 -62 l42 -25 -1 -59 c0 -33 4
-78 9 -102 12 -55 -4 -77 -34 -44 -11 11 -20 29 -20 38 0 34 -40 74 -82 80
-22 4 -53 18 -69 31 -26 22 -29 23 -29 6 -1 -16 -4 -15 -23 7 -12 14 -33 32
-47 41 -14 9 -36 36 -48 60 -13 24 -37 67 -53 94 -16 28 -32 57 -35 66 -3 9
-16 36 -29 60 -13 24 -33 64 -45 89 -55 113 -93 186 -105 200 -7 8 -24 38 -39
67 -14 28 -59 102 -101 164 -41 62 -84 137 -96 168 -24 66 -73 153 -94 171
-14 11 -14 10 -5 -15 8 -22 7 -31 -4 -44 -14 -15 -12 -25 16 -96 17 -44 39
-98 49 -121 21 -44 25 -89 9 -99 -5 -3 -21 2 -36 12 -27 17 -27 17 -20 -7 15
-50 80 -216 103 -263 28 -57 23 -73 -17 -52 l-28 15 20 -71 c19 -68 19 -71 1
-85 -17 -13 -17 -15 0 -28 9 -7 17 -20 17 -28 0 -20 38 -75 84 -122 55 -57 49
-91 -7 -38 l-30 27 7 -30 c4 -16 14 -35 22 -42 20 -15 34 -77 23 -94 -8 -12
-12 -11 -22 2 -11 15 -15 15 -32 3 -32 -24 -66 -17 -107 23 l-38 37 6 -31 c7
-36 -7 -49 -37 -33 -23 13 -24 14 21 -53 14 -21 31 -35 38 -32 29 11 60 -6 66
-35 6 -32 -9 -86 -32 -112 -13 -16 -13 -20 2 -43 10 -14 23 -28 31 -31 14 -6
115 -131 115 -143 0 -4 -11 -18 -23 -31 -19 -20 -22 -29 -13 -42 13 -21 1 -35
-17 -20 -7 6 -27 13 -43 16 -17 3 -46 12 -65 20 -27 11 -45 12 -84 4 -35 -7
-73 -7 -137 2 -49 6 -91 10 -93 8 -2 -2 13 -22 33 -45 40 -43 64 -48 122 -26
14 6 53 13 88 16 51 6 68 3 90 -11 15 -10 36 -23 47 -28 11 -6 21 -21 23 -33
2 -12 11 -21 21 -21 9 0 26 -6 37 -14 14 -11 16 -17 7 -26 -9 -10 -21 -7 -52
11 -23 12 -41 26 -41 31 0 17 -18 7 -23 -12 -4 -15 -14 -20 -36 -20 -26 0 -30
-4 -28 -22 3 -35 -25 -32 -84 8 l-54 38 33 -38 c18 -21 45 -48 59 -60 29 -25
24 -51 -8 -43 -11 3 -19 4 -19 3 0 -1 25 -19 56 -41 169 -120 171 -122 177
-157 3 -20 0 -39 -9 -49 -8 -8 -14 -23 -14 -31 0 -9 -6 -19 -12 -21 -10 -4
-10 -6 0 -6 6 -1 12 -10 12 -21 0 -15 -7 -20 -27 -20 -26 0 -24 -3 31 -54 69
-63 68 -81 -3 -58 -41 13 -53 13 -65 2 -30 -24 -24 -31 107 -148 20 -18 37
-37 37 -43 0 -6 7 -9 15 -5 8 3 15 1 15 -4 0 -6 -4 -10 -10 -10 -5 0 -10 -18
-10 -40 0 -40 -15 -54 -26 -25 -11 27 -22 16 -29 -30 -6 -43 -4 -48 34 -92 44
-49 46 -57 31 -98 -7 -18 -7 -33 1 -46 7 -15 7 -24 -2 -35 -10 -12 -6 -13 21
-7 31 6 33 5 27 -20 -4 -14 -10 -32 -13 -41 -4 -10 -1 -16 8 -16 15 0 48 -49
48 -71 0 -19 -51 -69 -70 -69 -29 0 -30 -12 -5 -32 35 -28 31 -41 -21 -70 -33
-18 -51 -37 -64 -66 -13 -30 -15 -39 -5 -36 26 10 26 -16 0 -63 -35 -64 -139
-169 -195 -198 -25 -13 -63 -42 -85 -65 -49 -51 -138 -121 -185 -145 -19 -10
-54 -34 -77 -54 -49 -42 -155 -121 -234 -172 -31 -20 -74 -54 -97 -75 -22 -22
-56 -52 -74 -67 l-33 -29 35 19 c19 10 39 24 43 31 4 7 24 19 44 27 19 8 43
25 53 37 25 33 108 90 114 79 3 -4 -3 -16 -14 -26 -18 -16 -18 -19 -3 -30 14
-10 8 -18 -48 -63 -35 -29 -70 -52 -78 -52 -27 0 -111 -60 -183 -131 -40 -39
-123 -106 -184 -150 -102 -72 -146 -109 -130 -109 3 0 25 14 48 30 27 20 45
27 52 20 9 -9 -3 -22 -63 -67 -9 -6 -13 -14 -9 -18 7 -7 268 165 289 191 9 11
8 14 -5 14 -42 0 -6 35 80 78 34 17 74 41 90 55 26 21 80 59 244 171 24 17 69
55 100 86 64 63 240 183 403 275 62 34 147 83 190 107 125 73 301 115 370 89
24 -9 27 -15 21 -38 -4 -16 -11 -34 -17 -40 -7 -10 -3 -13 17 -13 31 0 35 -24
9 -52 -14 -16 -15 -18 0 -18 47 0 29 -56 -24 -70 -37 -10 -47 -26 -39 -65 1
-5 -7 -15 -17 -22 -22 -17 -47 -114 -27 -106 7 2 20 23 29 46 9 24 44 68 78
102 34 34 70 75 79 93 13 24 24 32 45 32 15 0 50 11 76 24 26 14 73 30 103 37
62 14 74 7 74 -43 0 -21 4 -25 21 -21 11 3 46 -2 78 -12 56 -17 59 -16 102 2
72 32 79 34 121 22 32 -8 43 -7 56 4 10 8 43 18 75 22 70 8 79 -5 47 -67 -14
-27 -18 -44 -11 -46 6 -2 11 -7 11 -11 0 -13 -63 -11 -79 2 -12 10 -13 8 -6
-13 4 -14 16 -34 26 -46 11 -11 19 -31 19 -43 0 -20 2 -22 16 -10 14 11 18 10
29 -5 8 -10 18 -15 24 -11 6 3 16 -6 21 -21 10 -26 11 -26 31 -8 20 18 21 18
35 -1 8 -10 14 -29 14 -41 0 -12 7 -41 15 -65 12 -32 55 -243 55 -266 0 -2 8
-3 18 -3 20 0 42 -54 42 -106 0 -34 19 -66 27 -46 9 23 21 12 37 -35 18 -52
21 -119 6 -128 -6 -3 -1 -26 11 -57 25 -64 46 -161 65 -306 8 -63 26 -153 40
-200 13 -48 22 -71 19 -52 -3 19 -10 78 -15 131 -5 53 -14 116 -19 140 -6 24
-11 67 -11 94 0 28 -7 79 -15 115 -34 149 -39 189 -26 230 11 39 41 56 41 25
0 -9 12 -48 26 -88 15 -39 26 -82 25 -94 0 -12 3 -25 9 -28 5 -3 12 -26 16
-50 3 -25 11 -48 17 -52 13 -8 6 47 -27 200 -22 109 -23 122 -10 159 18 50 18
67 1 44 -19 -25 -32 -5 -47 69 -6 33 -20 84 -31 113 -10 29 -19 63 -19 75 0
13 -9 49 -21 81 -23 68 -22 171 2 171 8 0 22 9 31 20 13 16 19 17 29 8 16 -15
49 -111 49 -140 0 -13 3 -23 8 -23 4 0 5 33 2 72 -4 53 -9 72 -18 70 -12 -2
-42 53 -42 78 0 21 37 9 48 -16 13 -27 32 -24 32 5 0 27 20 42 42 30 10 -6 28
-7 39 -4 18 6 20 14 18 53 -4 53 14 94 39 91 33 -5 60 11 65 41 6 25 12 29 51
35 24 4 51 3 58 -1 14 -9 78 -8 117 1 22 6 22 7 7 24 -26 29 -20 51 14 51 34
0 35 2 18 31 -11 19 -10 24 14 41 l26 21 -29 24 c-46 39 -39 50 44 77 9 3 17
15 17 26 0 15 7 20 25 20 16 0 25 -6 25 -15 0 -8 -7 -15 -15 -15 -42 0 3 -42
63 -59 24 -7 46 -20 49 -29 4 -9 32 -41 62 -70 31 -28 56 -59 56 -68 0 -8 15
-24 33 -35 41 -26 42 -8 3 32 -28 27 -121 155 -121 164 0 18 32 -5 89 -64 36
-38 77 -74 89 -81 16 -8 22 -18 19 -31 -3 -12 0 -19 9 -19 26 0 93 -82 144
-176 28 -50 50 -99 50 -109 0 -10 10 -32 23 -49 13 -17 33 -52 46 -78 28 -58
93 -134 135 -155 17 -8 50 -36 73 -62 27 -29 42 -40 43 -30 0 9 -24 38 -52 65
-107 100 -198 208 -217 259 -41 108 -100 221 -130 249 -17 17 -31 33 -31 37 0
4 -16 31 -35 61 -20 29 -34 61 -31 70 2 10 -2 22 -10 29 -8 6 -14 20 -14 31 0
11 -5 28 -10 38 -14 25 -21 120 -10 120 12 0 1 54 -22 108 -23 55 -23 52 8 52
14 0 43 -13 64 -30 21 -16 47 -30 57 -30 22 0 53 -29 53 -49 0 -7 5 -9 10 -6
6 4 8 16 5 27 -8 24 2 68 15 68 6 0 27 -15 47 -33 44 -38 88 -67 103 -67 30 0
1 74 -45 112 -11 10 -15 17 -7 18 6 0 12 7 12 15 0 17 25 20 35 5 3 -5 16 -10
28 -10 12 0 31 -7 41 -15 28 -21 36 -19 36 10 0 15 6 25 14 25 20 0 142 -56
150 -69 10 -15 49 -14 44 2 -3 6 -13 14 -24 15 -27 5 -95 73 -92 92 2 8 14 15
28 15 18 0 26 6 28 23 2 13 13 27 25 31 12 5 33 21 46 35 14 14 33 26 43 26
10 0 18 7 18 16 0 13 9 14 58 10 l57 -6 -42 20 c-45 20 -54 36 -27 47 17 6 21
5 179 -50 55 -19 118 -38 140 -42 21 -4 52 -13 67 -21 30 -16 58 -19 43 -5 -6
5 -35 17 -65 26 -30 10 -89 33 -132 51 -42 19 -90 34 -107 34 -40 0 -231 95
-231 114 0 11 19 17 70 22 39 3 70 11 70 15 0 15 28 10 34 -6 3 -8 12 -15 20
-15 9 0 13 6 10 14 -8 21 34 46 68 39 22 -4 33 -1 44 15 11 16 22 20 47 16 36
-5 45 0 69 38 10 14 37 34 62 43 45 17 45 17 24 35 l-22 17 27 18 c20 13 39
16 70 12 38 -5 43 -3 54 19 11 23 10 24 -28 24 -39 0 -115 -15 -158 -32 -23
-8 -23 -9 -5 -23 25 -18 17 -24 -55 -41 -54 -12 -66 -12 -101 2 -28 11 -40 22
-40 36 0 20 0 20 -32 0 -58 -35 -90 -36 -131 -5 -20 15 -47 36 -59 45 -19 13
-21 20 -12 35 6 10 20 22 32 28 26 11 28 28 7 45 -8 7 -15 19 -15 26 0 10 -7
13 -23 9 -25 -7 -67 26 -67 52 0 12 6 14 28 8 15 -4 72 -8 127 -9 55 -1 122
-6 149 -10 39 -7 48 -6 44 5 -3 8 -21 17 -42 20 -20 3 -42 11 -48 17 -13 13
-2 32 20 32 9 0 34 5 55 11 28 8 36 13 28 22 -14 18 -1 33 32 39 32 6 47 -13
28 -36 -30 -36 19 -25 129 29 14 7 37 15 52 19 15 3 48 24 73 46 51 44 85 64
128 74 26 6 35 20 19 30 -4 2 -46 -20 -93 -50 -46 -30 -94 -57 -106 -60 -25
-7 -43 2 -43 19 1 16 83 67 109 67 11 0 21 6 21 13 0 7 14 21 30 30 16 10 30
22 30 26 0 13 -86 3 -118 -13 -17 -9 -38 -16 -46 -16 -8 0 -39 -14 -68 -31
-29 -18 -66 -32 -83 -32 -16 0 -38 -6 -49 -13 -21 -15 -46 -8 -46 12 0 8 -5
23 -12 33 -24 40 16 66 63 41 11 -7 19 -7 19 -1 0 5 30 12 68 16 74 6 202 43
202 58 0 5 -6 7 -12 4 -7 -2 -33 -1 -58 2 l-45 6 65 31 c36 17 97 41 135 53
39 13 96 37 128 53 39 20 66 28 82 24 13 -3 26 -2 30 4 9 14 70 29 189 45 61
8 113 15 118 15 4 0 8 5 8 11 0 8 -15 9 -47 3 -27 -4 -86 -9 -133 -10 -47 -1
-109 -5 -138 -9 -49 -7 -54 -6 -59 13 -3 15 -15 22 -37 24 -22 2 -31 8 -30 21
2 22 2 22 -83 -9 -48 -18 -73 -32 -76 -45 -4 -15 -14 -19 -55 -19 -62 0 -81
17 -57 54 9 13 30 29 46 35 16 5 29 13 29 16 0 9 -52 -6 -90 -27 -19 -10 -50
-21 -70 -24 -19 -3 -46 -9 -60 -14 -14 -5 -48 -11 -76 -14 l-52 -6 -5 37 c-3
26 1 44 11 56 14 16 13 20 -8 43 -20 21 -22 28 -12 44 7 11 8 21 2 25 -10 6
-40 63 -40 76 0 5 16 15 35 23 19 8 35 22 35 30 0 8 24 28 53 44 28 16 63 41
76 56 14 14 40 28 60 32 54 8 91 25 91 39 0 17 48 55 69 55 32 0 99 33 104 51
3 10 19 27 37 36 49 28 122 84 116 91 -4 3 -16 -4 -29 -15 -27 -26 -109 -63
-137 -63 -21 0 -93 -41 -105 -61 -4 -6 -35 -23 -70 -39 -38 -17 -71 -40 -84
-59 -12 -17 -28 -31 -35 -31 -7 0 -38 -16 -70 -35 -64 -38 -76 -42 -76 -21 0
7 24 29 52 47 29 19 58 44 64 57 6 13 24 36 40 53 15 16 23 29 17 29 -6 0 -16
-7 -23 -15 -6 -8 -32 -26 -57 -41 -89 -52 -75 24 17 91 27 20 50 41 50 45 0 5
16 20 35 33 20 14 49 45 64 69 16 25 45 57 64 72 19 15 38 34 41 41 6 16 -19
2 -159 -92 -82 -54 -105 -63 -105 -40 0 15 79 92 135 132 54 39 95 76 107 98
9 17 8 17 -22 2 -18 -9 -51 -34 -75 -56 -46 -42 -92 -52 -115 -24 -7 8 -18 15
-25 15 -8 0 -22 11 -33 25 l-20 25 -51 -20 c-29 -11 -56 -20 -61 -20 -20 0 -9
27 20 48 17 13 30 28 30 34 0 7 10 22 22 35 l21 23 -24 0 c-29 0 -43 -9 -52
-33 -5 -13 -13 -17 -28 -12 -19 6 -20 4 -14 -23 5 -24 2 -33 -17 -46 -32 -22
-37 -21 -54 19 -8 19 -20 35 -28 35 -42 0 -39 71 4 85 11 3 18 11 14 16 -3 6
4 21 17 35 12 13 17 24 11 24 -7 0 -12 -4 -12 -10 0 -5 -9 -10 -20 -10 -11 0
-20 -7 -20 -15 0 -16 -30 -35 -54 -35 -26 0 -18 30 12 42 15 7 29 13 31 15 10
8 -66 62 -86 63 -31 0 -29 28 2 36 16 4 25 13 25 26 0 11 8 22 19 25 12 3 17
11 14 23 -5 18 -6 18 -33 -2 -25 -18 -32 -19 -64 -8 -47 15 -50 23 -35 76 13
43 16 45 43 40 16 -3 37 -6 48 -6 12 0 24 -12 33 -33 12 -30 17 -33 49 -29 20
2 36 9 36 14 0 6 14 8 34 4 21 -4 37 -2 41 4 15 24 -57 73 -127 86 -27 6 -31
4 -20 -7 6 -7 12 -19 12 -26 0 -18 -25 -16 -41 3 -7 8 -30 24 -51 35 -24 12
-40 28 -43 44 -3 14 -7 36 -10 50 -3 16 -12 25 -24 25 -10 0 -24 7 -31 15 -7
8 -23 15 -36 15 -13 0 -24 5 -24 11 0 6 -25 35 -55 65 -50 48 -59 53 -93 50
-48 -5 -82 -16 -82 -27 0 -4 -21 -20 -47 -36 -27 -15 -68 -43 -93 -62 -90 -71
-226 -186 -259 -219 -24 -24 -41 -32 -60 -31 -14 2 -32 0 -39 -4 -16 -11 -32
0 -26 17 9 24 -17 29 -32 7 -13 -18 -18 -19 -37 -9 -12 6 -24 10 -27 9 -2 -1
-6 3 -8 9 -3 8 3 10 16 6 17 -6 22 0 32 29 7 20 41 69 76 108 35 39 64 75 64
81 0 9 -103 -83 -205 -183 -27 -27 -70 -77 -94 -110 -24 -33 -59 -72 -77 -86
-18 -14 -45 -45 -59 -70 -44 -74 -134 -111 -123 -50 7 34 -5 31 -46 -10 -43
-43 -73 -46 -82 -7 -10 45 -13 52 -24 52 -5 0 -10 -17 -10 -39 0 -28 -8 -49
-31 -77 -17 -22 -36 -39 -42 -39 -12 0 -13 51 -2 127 5 34 4 36 -20 34 -34 -4
-61 -41 -45 -61 10 -12 10 -19 -1 -32 -8 -9 -14 -35 -14 -57 0 -35 -3 -41 -23
-44 -14 -2 -25 3 -29 14 -5 14 -8 14 -23 -6 -22 -29 -40 -18 -40 21 0 20 -4
29 -12 26 -7 -2 -12 -16 -10 -31 2 -18 -2 -26 -13 -26 -14 0 -16 -9 -12 -50 6
-62 -11 -82 -42 -51 -12 12 -25 21 -30 21 -6 0 -17 10 -26 23 l-16 22 6 -25
c4 -15 0 -33 -10 -45 -15 -20 -15 -20 -36 8 -25 32 -39 27 -39 -14 0 -19 -5
-29 -15 -29 -8 0 -15 -7 -15 -15 0 -34 -29 -11 -56 43 -16 31 -32 59 -35 62
-24 19 -38 73 -36 135 3 61 0 71 -30 118 -31 48 -63 132 -63 164 0 7 -4 21
-10 31 -31 54 -52 136 -61 236 -9 106 -15 150 -25 189 -4 11 2 20 18 27 l23 9
-24 7 c-13 4 -29 20 -36 37 l-12 29 -11 -31 c-10 -28 -14 -30 -43 -24 -25 5
-31 3 -27 -8 3 -8 12 -13 21 -11 22 4 33 -21 63 -140 14 -57 30 -122 36 -145
12 -46 -1 -77 -28 -66 -11 4 -13 -7 -9 -61 2 -36 7 -82 10 -101 3 -19 7 -50
10 -69 4 -21 1 -39 -7 -48 -22 -22 -39 -131 -32 -202 l7 -65 -37 -18 c-37 -17
-38 -17 -57 7 -17 21 -19 22 -15 5 11 -41 -8 -47 -50 -17 -34 25 -43 42 -73
128 -19 54 -48 131 -66 169 -48 106 -58 133 -50 144 3 6 -4 32 -15 58 -12 27
-25 68 -30 93 -4 25 -29 99 -55 165 -26 66 -64 168 -85 228 -41 120 -56 144
-45 77z m2005 -668 c0 -37 -34 -70 -57 -56 -27 17 -26 32 1 59 34 34 56 33 56
-3z m910 8 c0 -5 -4 -10 -10 -10 -5 0 -10 5 -10 10 0 6 5 10 10 10 6 0 10 -4
10 -10z m-45 -11 c12 -19 -5 -23 -22 -6 -16 16 -16 17 -1 17 9 0 20 -5 23 -11z
m605 -459 c0 -5 -7 -10 -16 -10 -8 0 -12 5 -9 10 3 6 10 10 16 10 5 0 9 -4 9
-10z m-260 -570 c0 -5 -7 -10 -16 -10 -8 0 -12 5 -9 10 3 6 10 10 16 10 5 0 9
-4 9 -10z m9 -109 c8 -14 6 -22 -7 -33 -28 -25 -63 -40 -78 -34 -20 8 -18 63
4 75 28 17 70 13 81 -8z m-3769 -421 c0 -5 -4 -10 -10 -10 -5 0 -10 5 -10 10
0 6 5 10 10 10 6 0 10 -4 10 -10z m4017 -36 c-27 -15 -47 -12 -47 7 0 5 17 9
38 9 l37 -1 -28 -15z m63 -132 c0 -13 -42 -34 -77 -37 -46 -4 -38 16 13 32 47
14 64 15 64 5z m-394 -27 c2 -5 -3 -18 -10 -28 -12 -16 -16 -16 -52 -1 -49 20
-49 21 -36 37 13 15 93 9 98 -8z m230 1 c18 -14 18 -16 2 -32 -24 -25 -68 -11
-68 21 0 19 5 25 23 25 13 0 32 -6 43 -14z m-706 -1167 c0 -6 -4 -7 -10 -4 -5
3 -10 11 -10 16 0 6 5 7 10 4 6 -3 10 -11 10 -16z m-2173 -146 c2 -6 -3 -17
-11 -26 -20 -19 -32 -67 -17 -67 17 0 13 -17 -14 -60 -18 -29 -32 -40 -50 -40
-56 0 -63 101 -10 136 14 9 25 21 25 28 0 13 51 47 64 43 6 -2 11 -8 13 -14z
m-877 -224 c0 -19 -131 -133 -185 -161 -32 -17 -75 -43 -95 -58 -33 -25 -129
-55 -140 -43 -3 3 13 19 34 37 21 17 80 66 130 110 50 43 109 87 131 97 22 10
54 28 70 39 28 19 31 19 43 3 6 -9 12 -20 12 -24z m1740 -873 c0 -3 -4 -8 -10
-11 -5 -3 -10 -1 -10 4 0 6 5 11 10 11 6 0 10 -2 10 -4z"/>
<path d="M9550 6990 c8 -5 24 -10 34 -10 26 0 18 6 -19 14 -22 5 -26 4 -15 -4z"/>
<path d="M8543 6963 c-7 -3 -13 -14 -13 -25 0 -14 6 -19 22 -16 13 2 24 10 26
19 3 18 -15 29 -35 22z"/>
<path d="M6500 6954 c0 -6 7 -19 16 -30 14 -18 14 -18 3 6 -14 31 -19 36 -19
24z"/>
<path d="M1373 6933 c-20 -8 -15 -23 7 -23 11 0 20 7 20 15 0 15 -6 17 -27 8z"/>
<path d="M6350 6915 c0 -12 59 -115 65 -115 11 0 3 19 -30 70 -19 30 -35 50
-35 45z"/>
<path d="M11027 6902 c-12 -2 -17 -11 -15 -25 4 -31 52 -31 56 -1 3 23 -12 33
-41 26z"/>
<path d="M11579 6839 c-80 -85 26 -192 128 -130 26 16 32 26 31 53 -2 100 -96
145 -159 77z"/>
<path d="M10728 6846 c-10 -7 -22 -25 -28 -41 -9 -24 -7 -31 11 -52 30 -31 55
-29 74 7 20 38 19 63 -3 83 -22 20 -31 21 -54 3z"/>
<path d="M9295 6824 c-16 -8 -41 -25 -55 -38 -14 -12 -50 -40 -80 -62 -68 -48
-110 -85 -110 -96 0 -17 18 -7 61 33 90 84 131 106 214 113 17 1 39 7 49 13
17 9 16 12 -12 32 -36 25 -30 25 -67 5z"/>
<path d="M10084 6785 c-18 -13 -16 -14 27 -15 25 0 54 7 65 15 18 13 16 14
-27 15 -25 0 -54 -7 -65 -15z"/>
<path d="M2825 6679 c-4 -6 -5 -13 -2 -16 7 -7 27 6 27 18 0 12 -17 12 -25 -2z"/>
<path d="M9284 6679 c-5 -8 27 -29 44 -29 6 0 12 6 15 14 4 10 -4 15 -24 18
-17 3 -32 1 -35 -3z"/>
<path d="M1260 6625 c-13 -14 -20 -25 -16 -25 16 0 76 33 76 41 0 18 -37 8
-60 -16z"/>
<path d="M10525 6639 c-4 -6 -5 -13 -2 -16 7 -7 27 6 27 18 0 12 -17 12 -25
-2z"/>
<path d="M4445 6600 c-8 -13 3 -30 21 -30 18 0 18 14 0 29 -10 8 -16 9 -21 1z"/>
<path d="M10136 6558 c-23 -33 -20 -41 9 -22 14 9 25 23 25 30 0 21 -17 17
-34 -8z"/>
<path d="M8180 6475 c-18 -21 -4 -47 22 -43 29 4 35 34 10 47 -15 8 -23 7 -32
-4z"/>
<path d="M6680 6355 c0 -10 29 -62 55 -101 36 -53 31 -32 -11 42 -33 58 -44
74 -44 59z"/>
<path d="M10071 6282 c11 -17 8 -24 -24 -57 -40 -42 -51 -70 -14 -39 12 10 25
24 30 29 8 12 28 -15 20 -27 -2 -5 0 -15 7 -23 7 -9 8 -15 0 -20 -17 -10 -11
-25 9 -25 25 0 36 17 22 34 -11 13 -5 46 8 46 4 0 13 -6 20 -12 11 -11 12 -9
7 7 -3 11 -2 35 3 52 10 35 10 36 -62 49 -37 6 -38 6 -26 -14z"/>
<path d="M10315 6276 c-16 -12 -18 -19 -10 -43 8 -22 17 -29 43 -31 45 -5 61
11 53 51 -6 26 -12 33 -36 35 -17 2 -39 -4 -50 -12z"/>
<path d="M8208 6238 c4 -37 20 -68 36 -68 13 0 5 38 -10 51 -10 8 -13 21 -9
36 3 15 1 23 -8 23 -9 0 -11 -12 -9 -42z"/>
<path d="M6540 6247 c0 -14 78 -160 101 -187 18 -21 17 -18 -4 25 -14 28 -28
62 -31 78 -6 26 -65 101 -66 84z"/>
<path d="M6860 6223 c0 -12 9 -31 20 -44 l21 -24 -16 39 c-19 49 -25 55 -25
29z"/>
<path d="M8545 6180 c-3 -5 -1 -10 4 -10 6 0 11 5 11 10 0 6 -2 10 -4 10 -3 0
-8 -4 -11 -10z"/>
<path d="M2195 6169 c-4 -6 -5 -12 -2 -15 2 -3 7 2 10 11 7 17 1 20 -8 4z"/>
<path d="M5970 6156 c0 -10 69 -106 76 -106 7 0 -23 50 -52 85 -13 17 -24 26
-24 21z"/>
<path d="M6240 6069 c0 -8 12 -27 26 -44 l26 -30 -23 40 c-28 51 -29 51 -29
34z"/>
<path d="M10229 6063 c-13 -15 -12 -15 9 -4 23 12 28 21 13 21 -5 0 -15 -7
-22 -17z"/>
<path d="M7240 6055 c0 -13 35 -75 42 -75 17 0 7 30 -17 54 -14 14 -25 23 -25
21z"/>
<path d="M6690 5912 c0 -15 113 -184 135 -202 37 -31 8 22 -81 145 -45 63 -54
72 -54 57z"/>
<path d="M6099 5705 c5 -11 17 -29 26 -40 l16 -20 -10 20 c-5 11 -17 29 -26
40 l-16 20 10 -20z"/>
<path d="M10635 5680 c-8 -13 5 -13 25 0 13 8 13 10 -2 10 -9 0 -20 -4 -23
-10z"/>
<path d="M10455 5620 c3 -5 13 -10 21 -10 8 0 12 5 9 10 -3 6 -13 10 -21 10
-8 0 -12 -4 -9 -10z"/>
<path d="M6146 5515 c4 -8 10 -15 15 -15 4 0 6 7 3 15 -4 8 -10 15 -15 15 -4
0 -6 -7 -3 -15z"/>
<path d="M11886 5455 c-21 -21 -20 -28 3 -49 22 -20 54 -10 65 20 12 32 -42
55 -68 29z"/>
<path d="M10481 5377 c-19 -7 -36 -18 -39 -24 -6 -22 25 -14 55 12 32 28 31
28 -16 12z"/>
<path d="M10965 5263 c-30 -7 -43 -23 -18 -23 11 0 26 7 33 15 7 8 11 14 9 14
-2 -1 -13 -3 -24 -6z"/>
<path d="M10603 5120 c-13 -5 -23 -12 -23 -15 0 -9 16 -5 36 10 22 16 19 18
-13 5z"/>
<path d="M6060 4742 c0 -10 81 -44 88 -38 4 4 -71 46 -83 46 -3 0 -5 -4 -5 -8z"/>
<path d="M11554 4708 c-22 -10 -44 -47 -44 -74 0 -26 47 -64 78 -64 73 0 106
75 57 125 -27 26 -56 31 -91 13z"/>
<path d="M10948 4543 c7 -3 16 -2 19 1 4 3 -2 6 -13 5 -11 0 -14 -3 -6 -6z"/>
<path d="M6170 4530 c0 -5 5 -10 10 -10 6 0 10 5 10 10 0 6 -4 10 -10 10 -5 0
-10 -4 -10 -10z"/>
<path d="M10744 4475 c-8 -20 13 -45 37 -45 14 0 19 7 19 30 0 25 -4 30 -25
30 -14 0 -28 -7 -31 -15z"/>
<path d="M10390 4333 c-29 -9 -65 -28 -89 -45 -12 -10 -38 -20 -57 -24 -34 -6
-38 -24 -5 -24 23 0 113 39 126 55 6 7 21 19 35 29 24 16 20 19 -10 9z"/>
<path d="M10622 4308 c-24 -5 -41 -12 -39 -15 8 -8 106 8 113 18 6 11 -17 10
-74 -3z"/>
<path d="M10427 4263 c-8 -8 -9 -43 -2 -43 17 0 65 32 60 40 -7 11 -48 13 -58
3z"/>
<path d="M10060 4170 c20 -13 43 -13 35 0 -3 6 -16 10 -28 10 -18 0 -19 -2 -7
-10z"/>
<path d="M10644 4099 c-3 -5 1 -9 9 -9 8 0 30 -3 48 -6 45 -9 31 5 -15 16 -20
4 -39 4 -42 -1z"/>
<path d="M10545 4080 c-3 -5 1 -10 9 -10 8 0 18 5 21 10 3 6 -1 10 -9 10 -8 0
-18 -4 -21 -10z"/>
<path d="M11231 3966 c9 -9 139 -15 134 -6 -3 6 -36 10 -72 10 -37 0 -64 -2
-62 -4z"/>
<path d="M11520 3958 c0 -4 16 -8 35 -8 19 0 35 2 35 4 0 2 -16 6 -35 8 -19 2
-35 0 -35 -4z"/>
<path d="M12505 3863 c-38 -2 -74 -9 -80 -15 -7 -8 -3 -9 15 -4 14 3 58 6 98
6 41 0 72 4 72 10 0 6 -8 9 -17 8 -10 -1 -49 -4 -88 -5z"/>
<path d="M6310 3640 l-25 -21 30 7 c37 8 45 13 45 25 0 15 -23 10 -50 -11z"/>
<path d="M6445 3610 c3 -5 13 -10 21 -10 8 0 12 5 9 10 -3 6 -13 10 -21 10 -8
0 -12 -4 -9 -10z"/>
<path d="M5343 3589 c-18 -5 -33 -12 -33 -15 0 -8 91 6 110 17 21 12 -34 10
-77 -2z"/>
<path d="M2385 3299 c-19 -5 -4 -6 40 -2 39 3 72 7 74 9 8 7 -84 2 -114 -7z"/>
<path d="M8815 3210 c-4 -6 2 -23 12 -37 10 -14 23 -33 28 -42 15 -23 37 -39
65 -45 14 -3 36 -14 50 -25 35 -28 17 -43 -35 -29 -61 16 -86 12 -109 -15 -11
-14 -28 -27 -36 -29 -12 -4 -11 -7 6 -16 22 -12 52 -16 103 -14 32 2 33 3 16
15 -41 31 20 48 95 27 49 -14 64 4 28 34 -16 12 -28 25 -28 30 0 18 -56 66
-71 61 -11 -4 -34 12 -67 46 -31 32 -52 47 -57 39z"/>
<path d="M9350 3080 c8 -5 22 -10 30 -10 13 0 13 1 0 10 -8 5 -22 10 -30 10
-13 0 -13 -1 0 -10z"/>
<path d="M6240 3050 c-14 -11 -20 -20 -14 -20 7 0 22 9 35 20 31 25 12 26 -21
0z"/>
<path d="M9530 3055 c0 -2 18 -14 40 -25 49 -25 53 -19 6 9 -33 21 -46 25 -46
16z"/>
<path d="M264 2952 c-11 -11 -27 -35 -34 -53 -7 -19 -22 -46 -32 -61 -33 -48
-3 -38 61 22 48 44 62 63 59 81 -4 30 -28 35 -54 11z"/>
<path d="M9065 2940 c-3 -5 1 -10 10 -10 9 0 13 5 10 10 -3 6 -8 10 -10 10 -2
0 -7 -4 -10 -10z"/>
<path d="M6038 2917 c-38 -22 -48 -37 -26 -37 15 0 78 42 78 53 0 11 -12 8
-52 -16z"/>
<path d="M6820 2900 c-13 -9 -13 -10 0 -10 8 0 22 5 30 10 13 9 13 10 0 10 -8
0 -22 -5 -30 -10z"/>
<path d="M5459 2850 c-35 -22 -71 -44 -79 -49 -8 -5 -12 -13 -8 -17 11 -11 64
15 102 50 18 17 42 36 52 43 11 6 14 12 8 12 -6 1 -39 -17 -75 -39z"/>
<path d="M5687 2739 c-51 -34 -58 -51 -10 -25 38 21 81 56 68 56 -5 0 -32 -14
-58 -31z"/>
<path d="M7645 2719 c-4 -6 -5 -13 -2 -16 7 -7 27 6 27 18 0 12 -17 12 -25 -2z"/>
<path d="M5652 2624 c-60 -40 -69 -55 -14 -24 50 29 77 49 71 55 -3 2 -28 -11
-57 -31z"/>
<path d="M6483 2195 c-15 -13 -23 -25 -17 -25 6 0 21 11 34 25 30 32 19 32
-17 0z"/>
<path d="M5185 2190 c-3 -5 1 -10 9 -10 8 0 18 5 21 10 3 6 -1 10 -9 10 -8 0
-18 -4 -21 -10z"/>
<path d="M7534 2112 c-6 -4 -14 -20 -18 -37 l-6 -30 20 24 c11 13 20 29 20 37
0 16 -1 16 -16 6z"/>
<path d="M10100 1974 c8 -8 23 -20 34 -26 19 -10 18 -8 -3 16 -26 27 -53 37
-31 10z"/>
<path d="M8993 1355 c0 -22 2 -30 4 -17 2 12 2 30 0 40 -3 9 -5 -1 -4 -23z"/>
<path d="M7446 1244 c-10 -25 1 -29 14 -5 6 12 7 21 1 21 -5 0 -12 -7 -15 -16z"/>
<path d="M8261 1244 c0 -11 3 -14 6 -6 3 7 2 16 -1 19 -3 4 -6 -2 -5 -13z"/>
<path d="M8270 1190 c0 -11 4 -20 9 -20 5 0 7 9 4 20 -3 11 -7 20 -9 20 -2 0
-4 -9 -4 -20z"/>
<path d="M8282 1125 c0 -16 2 -22 5 -12 2 9 2 23 0 30 -3 6 -5 -1 -5 -18z"/>
<path d="M2215 70 c-3 -5 -2 -10 4 -10 5 0 13 5 16 10 3 6 2 10 -4 10 -5 0
-13 -4 -16 -10z"/>
</g>
</svg>
