<?xml version="1.0" standalone="no"?>
<!DOCTYPE svg PUBLIC "-//W3C//DTD SVG 20010904//EN"
 "http://www.w3.org/TR/2001/REC-SVG-20010904/DTD/svg10.dtd">
<svg version="1.0" xmlns="http://www.w3.org/2000/svg"
 width="512.000000pt" height="489.000000pt" viewBox="0 0 512.000000 489.000000"
 preserveAspectRatio="xMidYMid meet">

<g transform="translate(0.000000,489.000000) scale(0.100000,-0.100000)"
fill="#1c1c1c" stroke="none">
<path d="M3275 4880 c-95 -39 -185 -283 -235 -636 -21 -145 -17 -145 91 0 168
224 267 405 277 508 6 66 -4 96 -41 118 -34 21 -59 24 -92 10z"/>
<path d="M1668 4559 c-45 -23 -68 -63 -68 -117 0 -60 65 -178 203 -372 209
-291 256 -381 257 -490 0 -66 -29 -123 -79 -157 -82 -55 -115 -32 -314 216
-72 90 -127 120 -179 98 -64 -27 -88 -77 -64 -129 9 -18 41 -62 73 -98 126
-145 138 -181 81 -246 -30 -34 -34 -36 -84 -32 -43 4 -71 16 -168 77 -133 84
-175 95 -220 60 -16 -12 -35 -37 -42 -56 -12 -28 -12 -38 0 -68 19 -45 47 -70
176 -160 140 -97 170 -131 170 -195 0 -45 -36 -76 -96 -84 -66 -10 -186 11
-474 79 -233 56 -391 77 -454 61 -63 -16 -85 -75 -42 -115 46 -43 160 -64 561
-102 330 -31 445 -55 484 -102 20 -25 8 -91 -24 -132 -75 -100 -228 -115 -610
-64 -88 12 -218 22 -290 23 -118 1 -135 -1 -178 -23 -57 -27 -79 -65 -80 -133
-1 -60 25 -98 81 -117 58 -21 172 -3 446 70 361 96 494 109 585 58 50 -28 81
-86 81 -152 0 -108 -37 -142 -252 -228 -191 -77 -232 -122 -193 -214 29 -71
65 -61 192 53 118 105 149 128 188 136 39 8 84 -19 124 -75 56 -77 49 -139
-22 -193 -18 -14 -95 -55 -171 -91 -162 -77 -194 -97 -211 -138 -17 -41 -4
-77 46 -121 101 -92 182 -50 347 181 137 191 188 208 253 82 30 -59 36 -145
15 -210 -40 -120 -120 -212 -376 -429 -266 -226 -320 -288 -320 -365 0 -47 21
-86 64 -119 81 -61 166 -73 226 -32 58 39 102 130 185 379 89 266 136 372 195
440 92 104 193 119 337 51 96 -46 104 -97 43 -307 -22 -76 -40 -151 -40 -166
0 -64 89 -117 147 -89 45 22 70 72 103 209 33 141 57 199 92 223 34 24 82 20
117 -9 62 -53 64 -163 9 -530 -39 -264 -44 -448 -13 -510 41 -82 128 -107 215
-63 70 36 85 72 84 198 -1 94 -7 125 -54 295 -29 105 -64 231 -77 280 -33 119
-42 268 -19 316 31 65 122 93 180 56 35 -23 56 -58 114 -192 73 -169 128 -213
212 -170 68 35 66 77 -15 245 -77 161 -83 205 -35 250 40 38 97 51 146 34 68
-23 114 -88 238 -332 124 -244 166 -302 237 -324 83 -24 189 52 189 135 0 83
-56 145 -328 367 -228 185 -289 272 -248 356 21 46 70 74 127 74 80 0 152 -45
320 -203 246 -231 286 -259 371 -259 62 0 78 14 78 66 0 76 -42 111 -371 314
-235 145 -289 224 -219 320 16 22 36 58 45 79 31 73 88 113 163 113 83 0 173
-39 497 -218 203 -112 299 -125 346 -48 25 41 24 69 -3 101 -33 38 -125 67
-394 125 -362 78 -455 114 -489 187 -15 31 -15 36 3 75 39 88 132 138 258 138
34 0 126 -7 205 -16 115 -13 155 -14 196 -4 90 20 122 79 110 206 -7 77 -37
148 -68 164 -14 8 -44 10 -80 7 -46 -4 -99 -25 -266 -105 -247 -118 -258 -122
-339 -122 -58 0 -66 3 -97 33 -33 34 -57 92 -57 140 0 15 13 41 30 61 30 34
70 53 239 117 122 46 158 85 153 165 -3 33 -55 84 -87 84 -15 0 -71 -18 -126
-40 -117 -47 -165 -56 -213 -40 -43 14 -86 62 -86 97 0 43 56 83 284 203 328
171 389 239 321 356 -52 88 -127 113 -217 72 -76 -35 -141 -98 -309 -299 -146
-174 -212 -240 -257 -253 -17 -6 -29 0 -52 23 -54 54 -40 113 75 301 74 121
115 208 115 242 0 43 -20 76 -57 93 -74 36 -128 -10 -245 -205 -99 -164 -159
-230 -211 -230 -49 0 -65 8 -82 41 -22 42 -18 93 19 240 46 180 50 219 32 264
-19 45 -74 71 -120 58 -42 -12 -70 -57 -96 -155 -42 -159 -51 -187 -73 -220
-43 -63 -140 -61 -174 5 -13 26 -14 51 -7 166 12 194 11 218 -17 247 -26 27
-91 33 -122 10 -38 -29 -40 -66 -12 -197 15 -68 29 -150 32 -181 5 -51 3 -59
-21 -83 -25 -25 -32 -27 -96 -23 -59 3 -75 8 -107 34 -87 70 -126 161 -174
413 -68 354 -90 426 -150 482 -27 25 -39 29 -88 29 -36 -1 -69 -8 -93 -21z"/>
<path d="M4184 3192 c-55 -44 -59 -109 -10 -158 39 -39 85 -45 126 -17 40 27
49 45 50 91 0 61 -40 102 -102 102 -26 0 -52 -7 -64 -18z"/>
<path d="M38 3021 c-28 -25 -33 -36 -33 -76 0 -40 5 -51 33 -76 79 -71 199 3
171 106 -21 76 -111 100 -171 46z"/>
<path d="M4595 2293 c-79 -7 -299 -34 -302 -37 -2 -2 34 -19 79 -39 272 -115
470 -170 601 -165 86 3 90 4 118 36 53 59 30 129 -55 168 -77 35 -272 52 -441
37z"/>
<path d="M605 1509 c-373 -56 -585 -147 -585 -252 0 -44 38 -92 80 -101 99
-19 326 90 582 282 54 41 100 78 103 83 8 13 -30 10 -180 -12z"/>
</g>
</svg>
