<?xml version="1.0" standalone="no"?>
<!DOCTYPE svg PUBLIC "-//W3C//DTD SVG 20010904//EN"
 "http://www.w3.org/TR/2001/REC-SVG-20010904/DTD/svg10.dtd">
<svg version="1.0" xmlns="http://www.w3.org/2000/svg"
 width="512.000000pt" height="512.000000pt" viewBox="0 0 512.000000 512.000000"
 preserveAspectRatio="xMidYMid meet">

<g transform="translate(0.000000,512.000000) scale(0.100000,-0.100000)"
fill="orange" stroke="none">
<path d="M361 4784 c-169 -45 -301 -180 -346 -351 -22 -85 -22 -1421 0 -1506
45 -173 178 -307 350 -352 49 -12 135 -15 488 -15 l428 0 -3 -382 c-4 -362 -5
-387 -26 -448 -54 -161 -176 -304 -323 -378 -100 -51 -192 -72 -313 -72 -49 0
-107 -5 -130 -12 -55 -16 -138 -99 -154 -154 -17 -57 -17 -571 0 -628 18 -59
99 -138 161 -156 65 -18 318 -7 451 20 361 72 691 266 918 539 178 214 288
444 350 727 22 98 22 107 25 1423 3 943 1 1340 -7 1378 -37 175 -179 322 -357
368 -84 22 -1430 21 -1512 -1z"/>
<path d="M3241 4784 c-169 -45 -301 -180 -346 -351 -22 -85 -22 -1421 0 -1506
45 -173 178 -307 350 -352 49 -12 135 -15 488 -15 l428 0 -3 -382 c-4 -362 -5
-387 -26 -448 -54 -161 -176 -304 -323 -378 -100 -51 -192 -72 -313 -72 -49 0
-107 -5 -130 -12 -55 -16 -138 -99 -154 -154 -8 -28 -12 -129 -12 -314 0 -185
4 -286 12 -314 18 -59 99 -138 161 -156 65 -18 318 -7 451 20 361 72 691 266
918 539 178 214 288 444 350 727 22 98 22 107 25 1423 3 943 1 1340 -7 1378
-37 175 -179 322 -357 368 -84 22 -1430 21 -1512 -1z"/>
</g>
</svg>
